<?xml version="1.0" encoding="UTF-8" standalone="no"?>
<!DOCTYPE svg PUBLIC "-//W3C//DTD SVG 1.1//EN" "http://www.w3.org/Graphics/SVG/1.1/DTD/svg11.dtd">
<svg width="100" height="100" viewBox="0 0 200 200" version="1.1" xmlns="http://www.w3.org/2000/svg" xmlns:xlink="http://www.w3.org/1999/xlink" xml:space="preserve" xmlns:serif="http://www.serif.com/" style="fill-rule:evenodd;clip-rule:evenodd;stroke-linecap:round;stroke-linejoin:round;stroke-miterlimit:1.5;">
    <g transform="matrix(1,0,0,1,-1400,-300)">
        <g transform="matrix(1,0,0,1,900,0)">
            <g id="ws-oe-5" transform="matrix(-1,-1.22465e-16,1.22465e-16,-1,1000,1200)">
                <g id="nectar" transform="matrix(-4.37047,5.35229e-16,-5.35229e-16,-4.37047,1398.14,1983.28)">
                    <g transform="matrix(1,0,0,1,220.375,278.755)">
                        <path d="M0,0.001L0,0L-0.001,0C0,0 0,0.001 0,0.001C0,0.001 0,0 0.001,0L0,0L0,0.001" style="fill:rgb(239,84,158);fill-rule:nonzero;"/>
                    </g>
                    <g transform="matrix(1,0,0,1,220.375,278.751)">
                        <path d="M0,-0.001L0,0L0.001,0C0,0 0,-0.001 0,-0.001C0,-0.001 0,0 -0.001,0L0,0L0,-0.001" style="fill:rgb(239,84,158);fill-rule:nonzero;"/>
                    </g>
                    <g transform="matrix(0,1,1,0,220.377,278.752)">
                        <path d="M-0.001,0L0,0L-0.001,0L-0.001,-0.001L-0.001,0" style="fill:rgb(239,84,158);fill-rule:nonzero;"/>
                    </g>
                    <g transform="matrix(-1,0,0,1,220.376,278.754)">
                        <path d="M-0.001,0.001L0,0.001L-0.001,0.001L-0.001,0L-0.001,0.001" style="fill:rgb(239,84,158);fill-rule:nonzero;"/>
                    </g>
                    <g transform="matrix(1,0,0,1,220.376,278.753)">
                        <path d="M0,-0.001L0.001,-0.001L0,0C0,0 0.001,0 0.002,-0.001L0,-0.001" style="fill:rgb(239,84,158);fill-rule:nonzero;"/>
                    </g>
                    <g transform="matrix(1,0,0,1,220.376,278.751)">
                        <rect x="0" y="0" width="0.001" height="0.001" style="fill:rgb(239,84,158);"/>
                    </g>
                    <g transform="matrix(1,0,0,1,220.375,278.751)">
                        <rect x="0" y="0" width="0.001" height="0.001" style="fill:rgb(239,84,158);"/>
                    </g>
                    <g transform="matrix(1,0,0,1,220.376,278.753)">
                        <rect x="0" y="0" width="0.001" height="0.001" style="fill:rgb(239,84,158);"/>
                    </g>
                    <g transform="matrix(1,0,0,1,220.376,278.753)">
                        <rect x="0" y="0" width="0.001" height="0.001" style="fill:rgb(239,84,158);"/>
                    </g>
                    <g transform="matrix(1,0,0,1,220.376,278.751)">
                        <rect x="0" y="0" width="0.001" height="0.001" style="fill:rgb(239,84,158);"/>
                    </g>
                    <g transform="matrix(1,0,0,1,220.376,278.753)">
                        <rect x="0" y="0" width="0.001" height="0.001" style="fill:rgb(239,84,158);"/>
                    </g>
                    <g transform="matrix(0,-1,-1,0,220.374,278.755)">
                        <path d="M0,0.001L0.001,0.001L0,0.001L0,0L0,0.001" style="fill:rgb(239,84,158);fill-rule:nonzero;"/>
                    </g>
                    <g transform="matrix(1,0,0,1,220.375,278.753)">
                        <rect x="0" y="0" width="0.001" height="0.001" style="fill:rgb(239,84,158);"/>
                    </g>
                    <g transform="matrix(1,0,0,1,220.374,278.753)">
                        <rect x="0" y="0" width="0.001" height="0.001" style="fill:rgb(239,84,158);"/>
                    </g>
                    <g transform="matrix(1,0,0,1,220.373,278.752)">
                        <path d="M0,-0.001L0.001,-0.001L0,-0.001L0,0L0,-0.001" style="fill:rgb(239,84,158);fill-rule:nonzero;"/>
                    </g>
                    <g transform="matrix(1,0,0,1,220.372,278.753)">
                        <path d="M0,0L0.001,0L0.001,-0.001C0.001,0 0,0 0,0C0,0 0.001,0 0.001,0.001L0.001,0L0,0" style="fill:rgb(239,84,158);fill-rule:nonzero;"/>
                    </g>
                    <g transform="matrix(1,0,0,1,220.374,278.753)">
                        <rect x="0" y="0" width="0.001" height="0.001" style="fill:rgb(239,84,158);"/>
                    </g>
                    <g transform="matrix(1,0,0,1,220.374,278.751)">
                        <rect x="0" y="0" width="0.001" height="0.001" style="fill:rgb(239,84,158);"/>
                    </g>
                    <g transform="matrix(1,0,0,1,220.374,278.753)">
                        <rect x="0" y="0" width="0.001" height="0.001" style="fill:rgb(239,84,158);"/>
                    </g>
                    <g transform="matrix(1,0,0,1,220.375,278.751)">
                        <rect x="0" y="0" width="0.001" height="0.001" style="fill:rgb(239,84,158);"/>
                    </g>
                    <g transform="matrix(1,0,0,1,220.376,278.752)">
                        <rect x="0" y="0" width="0.001" height="0.001" style="fill:rgb(239,84,158);"/>
                    </g>
                    <g transform="matrix(1,0,0,1,220.376,278.752)">
                        <rect x="0" y="0" width="0.001" height="0.001" style="fill:rgb(239,84,158);"/>
                    </g>
                    <g transform="matrix(1,0,0,1,220.375,278.753)">
                        <rect x="0" y="0" width="0.001" height="0.001" style="fill:rgb(239,84,158);"/>
                    </g>
                    <g transform="matrix(1,0,0,1,220.376,278.752)">
                        <rect x="0" y="0" width="0.001" height="0.001" style="fill:rgb(239,84,158);"/>
                    </g>
                    <g transform="matrix(1,0,0,1,220.374,278.752)">
                        <rect x="0" y="0" width="0.001" height="0.001" style="fill:rgb(239,84,158);"/>
                    </g>
                    <g transform="matrix(1,0,0,1,220.374,278.752)">
                        <rect x="0" y="0" width="0.001" height="0.001" style="fill:rgb(239,84,158);"/>
                    </g>
                    <g transform="matrix(1,0,0,1,220.375,278.751)">
                        <rect x="0" y="0" width="0.001" height="0.001" style="fill:rgb(239,84,158);"/>
                    </g>
                    <g transform="matrix(1,0,0,1,220.375,278.753)">
                        <rect x="0" y="0" width="0.001" height="0.001" style="fill:rgb(239,84,158);"/>
                    </g>
                    <g transform="matrix(1,0,0,1,220.374,278.752)">
                        <rect x="0" y="0" width="0.001" height="0.001" style="fill:rgb(239,84,158);"/>
                    </g>
                    <g transform="matrix(1,0,0,1,220.375,278.751)">
                        <rect x="0" y="0" width="0.001" height="0.001" style="fill:rgb(239,84,158);"/>
                    </g>
                    <g transform="matrix(1,0,0,1,220.376,278.752)">
                        <rect x="0" y="0" width="0.001" height="0.001" style="fill:rgb(239,84,158);"/>
                    </g>
                    <g transform="matrix(1,0,0,1,220.376,278.753)">
                        <rect x="0" y="0" width="0.001" height="0.001" style="fill:rgb(239,84,158);"/>
                    </g>
                    <g transform="matrix(1,0,0,1,220.374,278.753)">
                        <rect x="0" y="0" width="0.001" height="0.001" style="fill:rgb(239,84,158);"/>
                    </g>
                    <g transform="matrix(1,0,0,1,220.376,278.752)">
                        <rect x="0" y="0" width="0.001" height="0.001" style="fill:rgb(239,84,158);"/>
                    </g>
                    <g transform="matrix(1,0,0,1,220.374,278.751)">
                        <rect x="0" y="0" width="0.001" height="0.001" style="fill:rgb(239,84,158);"/>
                    </g>
                    <g transform="matrix(1,0,0,1,220.98,284.675)">
                        <path d="M0,-4.494C-0.06,-4.628 -0.117,-4.757 -0.171,-4.879C0.037,-4.337 0.241,-3.718 0.244,-3.375C0.249,-2.677 -0.119,-2.29 -0.578,-2.282C-1.037,-2.274 -1.413,-2.647 -1.418,-3.346C-1.421,-3.689 -1.225,-4.317 -1.024,-4.868C-1.075,-4.745 -1.129,-4.617 -1.187,-4.484C-1.576,-3.457 -2.016,-2.144 -2.011,-1.469C-2.002,-0.262 -1.351,0.385 -0.558,0.371C0.236,0.357 0.872,-0.312 0.863,-1.519C0.857,-2.192 0.402,-3.483 0,-4.494" style="fill:rgb(239,84,158);fill-rule:nonzero;"/>
                    </g>
                    <g transform="matrix(1,0,0,1,220.327,277.697)">
                        <path d="M0,-5.237C-0.794,-5.223 -1.429,-4.554 -1.42,-3.347C-1.415,-2.674 -0.96,-1.383 -0.558,-0.372C-0.497,-0.238 -0.44,-0.109 -0.387,0.014C-0.594,-0.529 -0.799,-1.148 -0.801,-1.491C-0.807,-2.189 -0.439,-2.576 0.02,-2.584C0.479,-2.592 0.856,-2.218 0.861,-1.52C0.863,-1.177 0.667,-0.549 0.467,0.002C0.518,-0.12 0.572,-0.249 0.629,-0.382C1.018,-1.409 1.459,-2.722 1.453,-3.397C1.444,-4.604 0.793,-5.251 0,-5.237" style="fill:rgb(239,84,158);fill-rule:nonzero;"/>
                    </g>
                    <g transform="matrix(1,0,0,1,219.175,281.945)">
                        <path d="M0,-0.791C-0.49,-0.293 -1.024,-0.28 -1.354,-0.599C-1.684,-0.918 -1.686,-1.448 -1.196,-1.946C-0.989,-2.155 -0.531,-2.41 -0.07,-2.634C-0.224,-2.57 -0.387,-2.504 -0.554,-2.437C-1.484,-2.006 -2.519,-1.467 -2.942,-1.037C-3.789,-0.177 -3.787,0.74 -3.216,1.291C-2.645,1.843 -1.722,1.819 -0.875,0.959C-0.403,0.48 0.188,-0.755 0.619,-1.755C0.671,-1.892 0.722,-2.023 0.771,-2.148C0.534,-1.618 0.24,-1.035 0,-0.791" style="fill:rgb(239,84,158);fill-rule:nonzero;"/>
                    </g>
                    <g transform="matrix(1,0,0,1,224.791,277.644)">
                        <path d="M0,-3.374C-0.571,-3.925 -1.494,-3.902 -2.341,-3.041C-2.813,-2.562 -3.404,-1.327 -3.835,-0.328C-3.887,-0.191 -3.938,-0.059 -3.986,0.065C-3.75,-0.465 -3.456,-1.048 -3.216,-1.292C-2.726,-1.789 -2.192,-1.803 -1.862,-1.484C-1.531,-1.165 -1.53,-0.634 -2.02,-0.137C-2.226,0.073 -2.684,0.327 -3.145,0.551C-2.991,0.487 -2.829,0.421 -2.662,0.355C-1.732,-0.077 -0.697,-0.615 -0.273,-1.045C0.574,-1.905 0.571,-2.823 0,-3.374" style="fill:rgb(239,84,158);fill-rule:nonzero;"/>
                    </g>
                    <g transform="matrix(1,0,0,1,224.526,281.994)">
                        <path d="M0,-1.166C-0.534,-1.692 -2.008,-2.366 -3.047,-2.801C-3.151,-2.841 -3.25,-2.879 -3.343,-2.915C-2.761,-2.665 -2.031,-2.318 -1.75,-2.041C-1.252,-1.551 -1.239,-1.017 -1.557,-0.687C-1.876,-0.356 -2.407,-0.355 -2.904,-0.845C-3.149,-1.086 -3.454,-1.669 -3.702,-2.2C-3.651,-2.077 -3.599,-1.948 -3.545,-1.813C-3.095,-0.812 -2.477,0.428 -1.996,0.902C-1.136,1.749 -0.219,1.746 0.333,1.175C0.884,0.604 0.86,-0.319 0,-1.166" style="fill:rgb(239,84,158);fill-rule:nonzero;"/>
                    </g>
                    <g transform="matrix(1,0,0,1,217.974,274.638)">
                        <path d="M0,2.915C-0.498,2.425 -0.511,1.891 -0.192,1.561C0.126,1.231 0.657,1.229 1.155,1.719C1.399,1.96 1.705,2.543 1.952,3.074C1.902,2.951 1.849,2.822 1.796,2.688C1.345,1.686 0.727,0.446 0.246,-0.027C-0.614,-0.874 -1.531,-0.872 -2.082,-0.301C-2.634,0.27 -2.61,1.193 -1.75,2.04C-1.215,2.567 0.258,3.241 1.298,3.676C1.401,3.715 1.5,3.753 1.593,3.789C1.011,3.539 0.281,3.192 0,2.915" style="fill:rgb(239,84,158);fill-rule:nonzero;"/>
                    </g>
                    <g transform="matrix(1,0,0,1,224.762,280.103)">
                        <path d="M0,-2.864C-0.6,-2.853 -1.69,-2.478 -2.633,-2.105C-2.798,-2.028 -2.96,-1.955 -3.114,-1.886C-2.638,-2.065 -2.143,-2.22 -1.849,-2.226C-1.151,-2.238 -0.76,-1.875 -0.747,-1.416C-0.734,-0.957 -1.105,-0.577 -1.803,-0.564C-2.198,-0.557 -2.973,-0.809 -3.572,-1.03C-3.481,-0.993 -3.384,-0.953 -3.283,-0.91C-2.221,-0.509 -0.671,0.022 0.08,0.009C1.287,-0.013 1.927,-0.67 1.905,-1.464C1.883,-2.257 1.207,-2.886 0,-2.864" style="fill:rgb(239,84,158);fill-rule:nonzero;"/>
                    </g>
                    <g transform="matrix(1,0,0,1,217.838,278.041)">
                        <path d="M0,1.588C-0.698,1.601 -1.089,1.237 -1.102,0.778C-1.115,0.319 -0.745,-0.061 -0.047,-0.074C0.348,-0.081 1.124,0.172 1.723,0.392C1.632,0.355 1.535,0.315 1.434,0.273C0.372,-0.129 -1.178,-0.66 -1.93,-0.647C-3.137,-0.625 -3.777,0.033 -3.754,0.826C-3.732,1.619 -3.056,2.248 -1.849,2.226C-1.249,2.215 -0.16,1.841 0.783,1.467C0.949,1.39 1.11,1.317 1.264,1.248C0.789,1.427 0.294,1.583 0,1.588" style="fill:rgb(239,84,158);fill-rule:nonzero;"/>
                    </g>
                    <g transform="matrix(0,-1,-1,0,220.375,278.202)">
                        <path d="M-0.551,-0.551C-0.855,-0.551 -1.102,-0.304 -1.102,0C-1.102,0.305 -0.855,0.551 -0.551,0.551C-0.247,0.551 0,0.305 0,0C0,-0.304 -0.247,-0.551 -0.551,-0.551" style="fill:rgb(239,84,158);fill-rule:nonzero;"/>
                    </g>
                </g>
                <g transform="matrix(-1,1.22465e-16,-1.22465e-16,-1,1000,1200)">
                    <path d="M540,340L660,460" style="fill:none;stroke:rgb(71,61,56);stroke-width:4.17px;"/>
                </g>
                <g id="berries" transform="matrix(-4.29583,5.26088e-16,-5.26088e-16,-4.29583,348.575,823.687)">
                    <path d="M0,-5.356C-0.427,-5.356 -0.825,-5.247 -1.184,-5.07L-1.487,-6.86C-1.18,-7.11 -0.839,-7.331 -0.47,-7.508C0.341,-7.901 1.273,-8.154 2.148,-8.241L2.17,-8.243C2.227,-8.249 2.283,-8.262 2.338,-8.282C2.695,-8.415 2.877,-8.811 2.745,-9.168C2.612,-9.524 2.216,-9.706 1.859,-9.574C0.872,-9.208 -0.018,-8.809 -0.897,-8.288C-1.327,-8.022 -1.751,-7.73 -2.127,-7.365C-2.478,-7.028 -2.813,-6.676 -3.154,-6.309C-3.37,-6.078 -3.566,-5.826 -3.752,-5.566C-3.756,-5.566 -3.759,-5.568 -3.763,-5.568L-5.106,-5.582C-5.308,-6.864 -6.41,-7.847 -7.749,-7.847C-9.233,-7.847 -10.435,-6.645 -10.435,-5.162C-10.435,-3.679 -9.233,-2.476 -7.749,-2.476C-6.304,-2.476 -5.134,-3.62 -5.074,-5.051L-4.184,-4.886C-4.394,-4.515 -4.579,-4.131 -4.719,-3.739C-4.942,-3.129 -5.117,-2.511 -5.27,-1.883C-6.879,-1.753 -8.148,-0.421 -8.148,1.221C-8.148,2.949 -6.748,4.35 -5.019,4.35C-3.291,4.35 -1.89,2.949 -1.89,1.221C-1.89,-0.297 -2.973,-1.562 -4.408,-1.846C-4.278,-2.39 -4.122,-2.933 -3.938,-3.457C-3.647,-4.336 -3.233,-5.136 -2.609,-5.816C-2.452,-5.994 -2.279,-6.162 -2.1,-6.327L-1.724,-4.714C-2.307,-4.221 -2.686,-3.493 -2.686,-2.67C-2.686,-1.187 -1.483,0.016 0,0.016C1.484,0.016 2.686,-1.187 2.686,-2.67C2.686,-4.153 1.484,-5.356 0,-5.356" style="fill:rgb(152,21,49);fill-rule:nonzero;"/>
                </g>
            </g>
        </g>
    </g>
</svg>
